<svg width="36" height="32" viewBox="0 0 36 32" fill="none" xmlns="http://www.w3.org/2000/svg">
<path fill-rule="evenodd" clip-rule="evenodd" d="M25.6968 0C31.1614 0 35.2821 4.45867 35.2821 10.3713V21.6418C35.2821 24.6679 34.2121 27.4018 32.2675 29.3415C30.5231 31.0794 28.2601 32 25.7231 32H9.55405C7.02195 32 4.76062 31.081 3.01456 29.3415C1.06995 27.4018 0 24.6679 0 21.6418V10.3713C0 4.45867 4.12062 0 9.58523 0H25.6968ZM25.6968 2.46154H9.58523C5.45805 2.46154 2.46154 5.7879 2.46154 10.3713V21.6418C2.46154 24.0098 3.27549 26.1251 4.75241 27.5971C6.02585 28.8689 7.68821 29.5385 9.55898 29.5385H25.6968C25.7001 29.5352 25.7132 29.5385 25.7231 29.5385C27.5955 29.5385 29.2562 28.8689 30.5296 27.5971C32.0082 26.1251 32.8205 24.0098 32.8205 21.6418V10.3713C32.8205 5.7879 29.824 2.46154 25.6968 2.46154ZM28.2831 10.0575C28.7114 10.5843 28.631 11.3589 28.1042 11.7888L20.8115 17.7162C19.8892 18.4481 18.7865 18.814 17.6853 18.814C16.5875 18.814 15.4929 18.4514 14.5772 17.726L7.21723 11.7921C6.68718 11.3654 6.60513 10.5892 7.03015 10.0608C7.45846 9.53403 8.23303 9.45034 8.76144 9.87536L16.1149 15.8027C17.0388 16.5346 18.3401 16.5346 19.2706 15.7962L26.5502 9.87865C27.0786 9.44706 27.8531 9.52911 28.2831 10.0575Z" fill="#808080"/>
</svg>
