<svg width="32" height="32" viewBox="0 0 32 32" fill="none" xmlns="http://www.w3.org/2000/svg">
<path d="M32 16C32 19.1645 31.0616 22.2579 29.3035 24.8891C27.5454 27.5203 25.0466 29.5711 22.1229 30.7821C19.1993 31.9931 15.9823 32.3099 12.8786 31.6926C9.77486 31.0752 6.92394 29.5513 4.6863 27.3137C2.44866 25.0761 0.924806 22.2251 0.307443 19.1214C-0.309921 16.0177 0.00693257 12.8007 1.21793 9.87706C2.42894 6.95345 4.4797 4.45459 7.11088 2.69649C9.74207 0.938384 12.8355 6.32789e-07 16 6.32789e-07C18.1013 -0.000590407 20.1822 0.412858 22.1236 1.21672C24.0651 2.02059 25.8292 3.19912 27.315 4.68497C28.8009 6.17083 29.9794 7.93489 30.7833 9.87636C31.5871 11.8178 32.0006 13.8987 32 16Z" fill="#1E96C8"/>
<path d="M13.0664 23.333C12.5465 23.333 12.6397 23.1331 12.453 22.6396L10.9332 17.6267L20.3731 11.7334L21.4798 12.0268L20.5598 14.533L13.0664 23.333Z" fill="#C8DAEA"/>
<path d="M13.0667 23.3329C13.2214 23.3298 13.3735 23.2923 13.5119 23.2231C13.6503 23.1539 13.7715 23.0548 13.8668 22.9328C14.2135 22.5996 18.6666 18.2663 18.6666 18.2663L15.9335 17.5996L13.4002 19.1994L13.0667 23.1995V23.3329Z" fill="#A9C9DD"/>
<path d="M13.3334 19.2534L19.7854 24.0134C20.5187 24.4134 21.0521 24.2132 21.2388 23.3335L23.8662 10.9602C24.1329 9.88025 23.453 9.4002 22.7461 9.72023L7.33343 15.6669C6.28015 16.0936 6.29332 16.6803 7.14674 16.9335L11.1067 18.1734L20.2674 12.4C20.6941 12.1333 21.0942 12.2802 20.7741 12.5732L13.3334 19.2534Z" fill="url(#paint0_linear)"/>
<defs>
<linearGradient id="paint0_linear" x1="17.1909" y1="15.7641" x2="19.7006" y2="10.0728" gradientUnits="userSpaceOnUse">
<stop stop-color="#EFF7FC"/>
<stop offset="1" stop-color="white"/>
</linearGradient>
</defs>
</svg>
