<svg width="31" height="26" viewBox="0 0 31 26" fill="none" xmlns="http://www.w3.org/2000/svg">
<path d="M21 21C12.1 28.123 1 23 1 23C8 24 10 21 10 21C8.83566 21 7.68731 20.7289 6.6459 20.2082C5.60448 19.6875 4.6986 18.9315 4 18C4.62911 17.9501 5.23501 17.7402 5.7601 17.3902C6.28519 17.0401 6.71202 16.5615 7 16C3 15 1 11 1 11C1.62803 11.2858 2.31001 11.4336 3 11.4336C3.68999 11.4336 4.37197 11.2858 5 11C2 9 1 3 1 3C10 11 16 10 16 10V6.5C16 5.04131 16.5795 3.64236 17.6109 2.61091C18.6424 1.57946 20.0413 1 21.5 1C22.9587 1 24.3576 1.57946 25.3891 2.61091C26.4205 3.64236 27 5.04131 27 6.5V8.636C27.0042 9.77302 26.8508 10.9051 26.544 12C25.6465 15.4907 23.7138 18.6281 21 21Z" stroke="#EFF0F6" stroke-width="2" stroke-linecap="round" stroke-linejoin="round"/>
<path d="M22.5 7C23.3284 7 24 6.32843 24 5.5C24 4.67157 23.3284 4 22.5 4C21.6716 4 21 4.67157 21 5.5C21 6.32843 21.6716 7 22.5 7Z" fill="#EFF0F6"/>
<path d="M29 1L25.663 2.91L27 8L31 3L28 4L29 1Z" fill="#EFF0F6"/>
</svg>
